<mxfile host="Electron" agent="Mozilla/5.0 (Windows NT 10.0; Win64; x64) AppleWebKit/537.36 (KHTML, like Gecko) draw.io/27.0.9 Chrome/134.0.6998.205 Electron/35.4.0 Safari/537.36" version="27.0.9">
  <diagram name="第 1 页" id="jP1kr_-Zb4DfYdTlWHD2">
    <mxGraphModel dx="752" dy="817" grid="1" gridSize="10" guides="1" tooltips="1" connect="1" arrows="1" fold="1" page="1" pageScale="1" pageWidth="1169" pageHeight="1654" math="0" shadow="0">
      <root>
        <mxCell id="0" />
        <mxCell id="1" parent="0" />
        <mxCell id="Mj5pFzG8oZv49aJKTRpb-6" style="edgeStyle=orthogonalEdgeStyle;rounded=0;orthogonalLoop=1;jettySize=auto;html=1;entryX=0.5;entryY=0;entryDx=0;entryDy=0;" edge="1" parent="1" source="Mj5pFzG8oZv49aJKTRpb-2" target="Mj5pFzG8oZv49aJKTRpb-3">
          <mxGeometry relative="1" as="geometry" />
        </mxCell>
        <mxCell id="Mj5pFzG8oZv49aJKTRpb-2" value="&lt;h2&gt;&lt;font style=&quot;font-size: 18px;&quot;&gt;执行单元1&lt;/font&gt;&lt;/h2&gt;" style="rounded=1;whiteSpace=wrap;html=1;fillColor=#dae8fc;strokeColor=#6c8ebf;fontStyle=1" vertex="1" parent="1">
          <mxGeometry x="170" y="430" width="120" height="40" as="geometry" />
        </mxCell>
        <mxCell id="Mj5pFzG8oZv49aJKTRpb-7" style="edgeStyle=orthogonalEdgeStyle;rounded=0;orthogonalLoop=1;jettySize=auto;html=1;entryX=0.5;entryY=0;entryDx=0;entryDy=0;" edge="1" parent="1" source="Mj5pFzG8oZv49aJKTRpb-3" target="Mj5pFzG8oZv49aJKTRpb-4">
          <mxGeometry relative="1" as="geometry" />
        </mxCell>
        <mxCell id="Mj5pFzG8oZv49aJKTRpb-3" value="&lt;font style=&quot;font-size: 18px;&quot;&gt;读取count&lt;/font&gt;" style="rounded=0;whiteSpace=wrap;html=1;fillColor=#dae8fc;strokeColor=#6c8ebf;" vertex="1" parent="1">
          <mxGeometry x="170" y="520" width="120" height="40" as="geometry" />
        </mxCell>
        <mxCell id="Mj5pFzG8oZv49aJKTRpb-8" style="edgeStyle=orthogonalEdgeStyle;rounded=0;orthogonalLoop=1;jettySize=auto;html=1;entryX=0.5;entryY=0;entryDx=0;entryDy=0;" edge="1" parent="1" source="Mj5pFzG8oZv49aJKTRpb-4" target="Mj5pFzG8oZv49aJKTRpb-5">
          <mxGeometry relative="1" as="geometry" />
        </mxCell>
        <mxCell id="Mj5pFzG8oZv49aJKTRpb-4" value="&lt;font style=&quot;font-size: 18px;&quot;&gt;count++&lt;/font&gt;" style="rounded=0;whiteSpace=wrap;html=1;fillColor=#dae8fc;strokeColor=#6c8ebf;" vertex="1" parent="1">
          <mxGeometry x="170" y="590" width="120" height="40" as="geometry" />
        </mxCell>
        <mxCell id="Mj5pFzG8oZv49aJKTRpb-5" value="&lt;span style=&quot;font-size: 18px;&quot;&gt;写回count&lt;/span&gt;" style="rounded=0;whiteSpace=wrap;html=1;fillColor=#dae8fc;strokeColor=#6c8ebf;" vertex="1" parent="1">
          <mxGeometry x="170" y="660" width="120" height="40" as="geometry" />
        </mxCell>
        <mxCell id="Mj5pFzG8oZv49aJKTRpb-9" style="edgeStyle=orthogonalEdgeStyle;rounded=0;orthogonalLoop=1;jettySize=auto;html=1;entryX=0.5;entryY=0;entryDx=0;entryDy=0;fillColor=#d5e8d4;strokeColor=#82b366;" edge="1" source="Mj5pFzG8oZv49aJKTRpb-10" target="Mj5pFzG8oZv49aJKTRpb-12" parent="1">
          <mxGeometry relative="1" as="geometry" />
        </mxCell>
        <mxCell id="Mj5pFzG8oZv49aJKTRpb-10" value="&lt;h2&gt;&lt;font style=&quot;font-size: 18px;&quot;&gt;执行单元2&lt;/font&gt;&lt;/h2&gt;" style="rounded=1;whiteSpace=wrap;html=1;fillColor=#d5e8d4;strokeColor=#82b366;fontStyle=1" vertex="1" parent="1">
          <mxGeometry x="465" y="430" width="120" height="40" as="geometry" />
        </mxCell>
        <mxCell id="Mj5pFzG8oZv49aJKTRpb-11" style="edgeStyle=orthogonalEdgeStyle;rounded=0;orthogonalLoop=1;jettySize=auto;html=1;entryX=0.5;entryY=0;entryDx=0;entryDy=0;fillColor=#d5e8d4;strokeColor=#82b366;" edge="1" source="Mj5pFzG8oZv49aJKTRpb-12" target="Mj5pFzG8oZv49aJKTRpb-14" parent="1">
          <mxGeometry relative="1" as="geometry" />
        </mxCell>
        <mxCell id="Mj5pFzG8oZv49aJKTRpb-12" value="&lt;font style=&quot;font-size: 18px;&quot;&gt;读取count&lt;/font&gt;" style="rounded=0;whiteSpace=wrap;html=1;fillColor=#d5e8d4;strokeColor=#82b366;" vertex="1" parent="1">
          <mxGeometry x="465" y="520" width="120" height="40" as="geometry" />
        </mxCell>
        <mxCell id="Mj5pFzG8oZv49aJKTRpb-13" style="edgeStyle=orthogonalEdgeStyle;rounded=0;orthogonalLoop=1;jettySize=auto;html=1;entryX=0.5;entryY=0;entryDx=0;entryDy=0;fillColor=#d5e8d4;strokeColor=#82b366;" edge="1" source="Mj5pFzG8oZv49aJKTRpb-14" target="Mj5pFzG8oZv49aJKTRpb-15" parent="1">
          <mxGeometry relative="1" as="geometry" />
        </mxCell>
        <mxCell id="Mj5pFzG8oZv49aJKTRpb-14" value="&lt;font style=&quot;font-size: 18px;&quot;&gt;count++&lt;/font&gt;" style="rounded=0;whiteSpace=wrap;html=1;fillColor=#d5e8d4;strokeColor=#82b366;" vertex="1" parent="1">
          <mxGeometry x="465" y="590" width="120" height="40" as="geometry" />
        </mxCell>
        <mxCell id="Mj5pFzG8oZv49aJKTRpb-15" value="&lt;span style=&quot;font-size: 18px;&quot;&gt;写回count&lt;/span&gt;" style="rounded=0;whiteSpace=wrap;html=1;fillColor=#d5e8d4;strokeColor=#82b366;" vertex="1" parent="1">
          <mxGeometry x="465" y="660" width="120" height="40" as="geometry" />
        </mxCell>
        <mxCell id="Mj5pFzG8oZv49aJKTRpb-18" style="edgeStyle=orthogonalEdgeStyle;rounded=0;orthogonalLoop=1;jettySize=auto;html=1;entryX=1;entryY=0.5;entryDx=0;entryDy=0;" edge="1" parent="1" source="Mj5pFzG8oZv49aJKTRpb-16" target="Mj5pFzG8oZv49aJKTRpb-3">
          <mxGeometry relative="1" as="geometry" />
        </mxCell>
        <mxCell id="Mj5pFzG8oZv49aJKTRpb-19" style="edgeStyle=orthogonalEdgeStyle;rounded=0;orthogonalLoop=1;jettySize=auto;html=1;" edge="1" parent="1" source="Mj5pFzG8oZv49aJKTRpb-16" target="Mj5pFzG8oZv49aJKTRpb-12">
          <mxGeometry relative="1" as="geometry" />
        </mxCell>
        <mxCell id="Mj5pFzG8oZv49aJKTRpb-16" value="&lt;h2&gt;count=0&lt;/h2&gt;" style="ellipse;whiteSpace=wrap;html=1;" vertex="1" parent="1">
          <mxGeometry x="330" y="510" width="90" height="60" as="geometry" />
        </mxCell>
        <mxCell id="Mj5pFzG8oZv49aJKTRpb-17" value="&lt;h2&gt;count=1&lt;/h2&gt;" style="ellipse;whiteSpace=wrap;html=1;" vertex="1" parent="1">
          <mxGeometry x="330" y="620" width="90" height="60" as="geometry" />
        </mxCell>
        <mxCell id="Mj5pFzG8oZv49aJKTRpb-20" style="rounded=0;orthogonalLoop=1;jettySize=auto;html=1;entryX=-0.011;entryY=0.633;entryDx=0;entryDy=0;entryPerimeter=0;" edge="1" parent="1" source="Mj5pFzG8oZv49aJKTRpb-5" target="Mj5pFzG8oZv49aJKTRpb-17">
          <mxGeometry relative="1" as="geometry" />
        </mxCell>
        <mxCell id="Mj5pFzG8oZv49aJKTRpb-21" style="rounded=0;orthogonalLoop=1;jettySize=auto;html=1;entryX=1.033;entryY=0.667;entryDx=0;entryDy=0;entryPerimeter=0;" edge="1" parent="1" source="Mj5pFzG8oZv49aJKTRpb-15" target="Mj5pFzG8oZv49aJKTRpb-17">
          <mxGeometry relative="1" as="geometry" />
        </mxCell>
      </root>
    </mxGraphModel>
  </diagram>
</mxfile>
